<svg xmlns="http://www.w3.org/2000/svg" viewBox="0 0 500 160" width="500" height="160">
  <!-- Background Shape -->
  <rect x="10" y="30" width="480" height="100" rx="10" fill="#0074CC" />
  
  <!-- Company Name -->
  <text x="180" y="80" font-family="Montserrat, sans-serif" font-size="26" font-weight="700" fill="#FFFFFF">BADRI</text>
  <text x="180" y="110" font-family="Montserrat, sans-serif" font-size="16" font-weight="500" fill="#FFFFFF">Livraison & Transport</text>
  
  <!-- Truck Icon -->
  <g transform="translate(50, 45) scale(0.06)">
    <path d="M624 352h-16V243.9c0-12.7-5.1-24.9-14.1-33.9L494 110.1c-9-9-21.2-14.1-33.9-14.1H416V48c0-26.5-21.5-48-48-48H48C21.5 0 0 21.5 0 48v320c0 26.5 21.5 48 48 48h16c0 53 43 96 96 96s96-43 96-96h128c0 53 43 96 96 96s96-43 96-96h48c8.8 0 16-7.2 16-16v-32c0-8.8-7.2-16-16-16zM160 464c-26.5 0-48-21.5-48-48s21.5-48 48-48 48 21.5 48 48-21.5 48-48 48zm320 0c-26.5 0-48-21.5-48-48s21.5-48 48-48 48 21.5 48 48-21.5 48-48 48zm80-208H416V144h44.1l99.9 99.9V256z" fill="#FFFFFF"/>
  </g>
  
  <!-- Delivery Pin Icon -->
  <g transform="translate(120, 65) scale(0.05)">
    <path d="M172.268 501.67C26.97 291.031 0 269.413 0 192 0 85.961 85.961 0 192 0s192 85.961 192 192c0 77.413-26.97 99.031-172.268 309.67-9.535 13.774-29.93 13.773-39.464 0zM192 272c44.183 0 80-35.817 80-80s-35.817-80-80-80-80 35.817-80 80 35.817 80 80 80z" fill="#FFFFFF"/>
  </g>
  
  <!-- Decorative Lines -->
  <line x1="30" y1="125" x2="470" y2="125" stroke="#FFFFFF" stroke-width="2" stroke-opacity="0.3" />
  <line x1="180" y1="85" x2="320" y2="85" stroke="#FFFFFF" stroke-width="2" stroke-opacity="0.3" />
  
  <!-- Speed Lines -->
  <line x1="400" y1="60" x2="430" y2="60" stroke="#FFFFFF" stroke-width="3" />
  <line x1="410" y1="75" x2="440" y2="75" stroke="#FFFFFF" stroke-width="3" />
  <line x1="400" y1="90" x2="430" y2="90" stroke="#FFFFFF" stroke-width="3" />
</svg>
